<svg width="16" height="16" viewBox="0 0 16 16" fill="none" xmlns="http://www.w3.org/2000/svg">
<path fill-rule="evenodd" clip-rule="evenodd" d="M8.00018 1.81818C4.58605 1.81818 1.81836 4.58587 1.81836 7.99999C1.81836 11.4141 4.58605 14.1818 8.00018 14.1818C11.4143 14.1818 14.182 11.4141 14.182 7.99999C14.182 4.58587 11.4143 1.81818 8.00018 1.81818ZM0.818359 7.99999C0.818359 4.03359 4.03377 0.818176 8.00018 0.818176C11.9666 0.818176 15.182 4.03359 15.182 7.99999C15.182 11.9664 11.9666 15.1818 8.00018 15.1818C4.03377 15.1818 0.818359 11.9664 0.818359 7.99999ZM7.25018 5.0303C7.25018 4.61609 7.58596 4.2803 8.00018 4.2803H8.00734C8.42155 4.2803 8.75734 4.61609 8.75734 5.0303V5.03746C8.75734 5.45168 8.42155 5.78746 8.00734 5.78746H8.00018C7.58596 5.78746 7.25018 5.45168 7.25018 5.03746V5.0303ZM8.50018 7.99999C8.50018 7.72385 8.27632 7.49999 8.00018 7.49999C7.72404 7.49999 7.50018 7.72385 7.50018 7.99999V10.9697C7.50018 11.2458 7.72404 11.4697 8.00018 11.4697C8.27632 11.4697 8.50018 11.2458 8.50018 10.9697V7.99999Z" fill="#979898"/>
</svg>
